<svg id="Layer_1" data-name="Layer 1" xmlns="http://www.w3.org/2000/svg" viewBox="0 0 500 500"><defs><style>.cls-1{fill:#fff;}</style></defs><path class="cls-1" d="M53.84,353.68a4.11,4.11,0,0,0-1.13,3.1c0,1.71,1.46,3.34,4.39,4.87s5.81,3,8.67,4.51q4.59,3.18,4.59,7.76a9.19,9.19,0,0,1-2.57,6.86,9.82,9.82,0,0,1-7.16,2.52H47.77v-4.39h12c3.9,0,5.85-1.52,5.85-4.58q0-2.88-4.39-5.2l-8.62-4.54Q48,361.47,48,357a8.16,8.16,0,0,1,2.65-6.5,10.1,10.1,0,0,1,6.93-2.32H68.79v4.39H57a4.33,4.33,0,0,0-3.11,1.08Zm71.42,24.93a18.43,18.43,0,0,1-25.84,0,18,18,0,0,1,0-25.72,18.37,18.37,0,0,1,25.84,0,18,18,0,0,1,0,25.71ZM121.94,356a13.44,13.44,0,0,0-19.21,0,14.23,14.23,0,0,0,0,19.45,13.46,13.46,0,0,0,19.21,0,14.29,14.29,0,0,0,0-19.47Zm45.42,27.27a10.69,10.69,0,0,1-8-3.15,11.24,11.24,0,0,1-3-8.14v-23.8H161v22.64q0,8.07,7.11,8.06h4.54v4.39Zm48.51-2.87a11.05,11.05,0,0,1-8.32,3.48,10.93,10.93,0,0,1-8.22-3.48A12,12,0,0,1,196,371.8V348.21h4.69V371.3a9.45,9.45,0,0,0,1.76,6,6.88,6.88,0,0,0,10.19,0,9.24,9.24,0,0,0,1.81-5.95V348.21h4.74V371.8a12,12,0,0,1-3.32,8.63Zm40.38-27.83v30.7h-4.69V352.6h-8.67v-4.39h22v4.39Zm33.18,30.7V348.21h4.68V383.3Zm61.46-4.69a18.43,18.43,0,0,1-25.84,0,18,18,0,0,1,0-25.72,18.37,18.37,0,0,1,25.84,0,18,18,0,0,1,0,25.71ZM347.56,356a13.44,13.44,0,0,0-19.21,0,14.26,14.26,0,0,0,0,19.45,13.46,13.46,0,0,0,19.21,0,14.29,14.29,0,0,0,0-19.47Zm58.28,26.67a3.78,3.78,0,0,1-2.77.9,4.4,4.4,0,0,1-2.65-.68,8,8,0,0,1-2-2.74L386,354.51h-.15V383.3h-4.69V352.24A4.35,4.35,0,0,1,382.3,349a4.15,4.15,0,0,1,3-1,3.7,3.7,0,0,1,3.23,1.41,25.07,25.07,0,0,1,2.13,3.72l11.27,23.33.1-28.16h4.74v32a3.33,3.33,0,0,1-.91,2.47Zm32-29a4.11,4.11,0,0,0-1.13,3.1c0,1.71,1.46,3.34,4.39,4.87s5.81,3,8.67,4.51q4.59,3.18,4.59,7.76a9.15,9.15,0,0,1-2.58,6.86,9.78,9.78,0,0,1-7.15,2.52H431.76v-4.39h12c3.9,0,5.85-1.52,5.85-4.58,0-1.92-1.47-3.65-4.39-5.2l-8.62-4.54Q432,361.47,432,357a8.16,8.16,0,0,1,2.65-6.5,10.1,10.1,0,0,1,6.93-2.32h11.19v4.39H440.93a4.32,4.32,0,0,0-3.1,1.08Z"/><path class="cls-1" d="M256.38,330.28q-44.44,1.26-77.44,2.33t-55.65,1.69q-22.65.63-37.45,1.06-34.71,1.27-40.2,1.27c1.12-2.26,2.33-4.66,3.6-7.2s2.6-5.37,4-8.47v-.43q6.35-13.56,14-30.29t15.23-33.68q7.62-16.94,14.81-33.46l12.91-29.66q5.72-13.12,8.89-21.6t3.17-10.17c-.28-.85-2.33,1.63-6.13,7.41s-8.47,13.28-14,22.46-11.57,19.21-18.19,30.07-12.7,21-18.2,30.51S55.65,269.42,52,275.63s-5.51,9.17-5.51,8.89c-.84,1.41-2.89,2.12-6.13,2.12a43.33,43.33,0,0,1-10.16-1.27,31.56,31.56,0,0,1-9.1-3.6c-2.54-1.56-3.38-3-2.54-4.45l63.06-136A18.27,18.27,0,0,1,89.44,135a35.85,35.85,0,0,1,9.94-2.75,41.51,41.51,0,0,1,9.31-.21q4.23.42,6.77.84l-28.35,61q9.3-14.4,19.89-29.24A266,266,0,0,1,127.52,139q9.95-10.81,18.62-15t14.18,2.11a35.73,35.73,0,0,1,3,5.51,17.45,17.45,0,0,1,.63,6.36,20.31,20.31,0,0,1-2.75,8.47q-.85,1.7-5.5,11.44T144,182.64q-7,15-15.23,33.47T112.5,253q-8,18.43-15.45,35.59T85,317.57q21.58-2.13,48.24-5.09t54.17-6.35q27.49-3.4,53.74-6.57t47.4-5.51q21.15-2.32,35.12-3.6t16.93-.42c3.66.85,6.69,3.24,9.1,7.2a58.07,58.07,0,0,1,5.71,12.71,93.69,93.69,0,0,1,3.81,17.37l-102.83,3Zm2.21-167a180.87,180.87,0,0,0-11.78,18.5q-6.54,11.49-13.7,25.36t-13.06,26.47q-5.91,12.6-9.72,22.16t-3.82,11.8q-.64,1-4.62,3.35a36,36,0,0,1-9.56,3.83,34.39,34.39,0,0,1-11.47,1,16.77,16.77,0,0,1-10.67-5.27q-4.14-4.14-7.33-12.43a145,145,0,0,1-5.57-18.34q-2.4-10-4-20.73t-2.39-20.25q-.79-9.57-.95-16.75t.48-9.73a34.07,34.07,0,0,1,9.23-2.23,17.75,17.75,0,0,1,7,.8,8.15,8.15,0,0,1,5.1,4.62,52,52,0,0,1,1.59,10.53q.65,7.65,1.6,17.7t2.39,21.05a154.37,154.37,0,0,0,3.82,19.93,51.67,51.67,0,0,0,6.21,14.83q3.83,5.91,9.56,5.58.63-1.59,4.3-10.52t9.24-21.53q5.56-12.6,11.95-26.95t12.1-26.79q6.38-13.39,11.79-18.5t9.88-5.74a11.49,11.49,0,0,1,9.55,2.55q-1.9-1.27-7.17,5.74Zm55,34.29q-4.79,9.41-16.57,16.9t-34.4,7.82q-1.6,3.83-3.19,8.29t-2.87,9.57a97.34,97.34,0,0,0-3.18,15.46,38.76,38.76,0,0,0,0,10q.63,3.83,2.07,5.42a5.63,5.63,0,0,0,3.34,1.92q4.47.94,11.79-4.79,5.73-6.69,11-9.57a30,30,0,0,1,9.08-3.5,16.88,16.88,0,0,1,8.6.31,64.21,64.21,0,0,1-11.47,13.72,66.59,66.59,0,0,1-14.81,10.2,62.63,62.63,0,0,1-21.19,6.38q-12.42,1.59-17.68-3.66T229,266.59q.15-10.21,5.09-24.4a229.49,229.49,0,0,1,13.22-30.14q8.92-17.53,19-28.54t19.27-16.11q9.24-5.1,17.05-4.63a17.46,17.46,0,0,1,12.58,5.91q2.24,2.55,2.71,11t-4.3,17.86ZM302.4,177.61a81,81,0,0,0-7,4.14,75.1,75.1,0,0,0-9.72,7.66A96.75,96.75,0,0,0,275,201.05a94.33,94.33,0,0,0-10.19,16.42,126,126,0,0,0,13.54-2.39A42.89,42.89,0,0,0,292.68,209a26.94,26.94,0,0,0,9.88-11.8q3.35-7.49-.16-19.61Zm101.47-5.11a15.48,15.48,0,0,1-2.07,6.38c-.64,1.07-2.55,4.94-5.74,11.64s-6.9,14.67-11.15,23.92-8.65,19.09-13.22,29.5-8.55,20-11.95,28.71a7.09,7.09,0,0,1-4.93,3.5,32.15,32.15,0,0,1-8.13,1,47.73,47.73,0,0,1-10.83-.64q6.38-13.39,12.9-27.74t11.79-26.63q5.25-12.28,8.6-21t3.35-10.69c-.22-.64-1.65,1.07-4.3,5.1s-6,9.31-10,15.79-8.39,13.61-13.06,21.37-9,14.94-13.06,21.53-7.33,12.12-9.88,16.58-3.82,6.59-3.82,6.38q-1,1.59-5.1,2.39a56.71,56.71,0,0,1-8.6,1,29.28,29.28,0,0,1-7.81-.64c-2.23-.53-3-1.33-2.39-2.39.21-.64,1.76-4,4.62-10.05s6.53-13.87,11-23.44,9.44-20.35,15-32.37,11.15-24.18,16.88-36.52a13.8,13.8,0,0,1,5.9-4.78,27.27,27.27,0,0,1,7.48-2.07,31.54,31.54,0,0,1,7-.16c2.12.21,3.83.43,5.1.64q-5.73,12.12-11.15,23.76T346,214.6q7-10.83,15-22a199.07,199.07,0,0,1,15.45-19.29q7.48-8.13,14-11.32t10.67,1.59a26.06,26.06,0,0,1,2.23,4.15,13.23,13.23,0,0,1,.48,4.78Zm62.12-26q-4.29,8.44-9.87,19.29t-11.31,22.33l36.95-.64-13.38,25.84-36.64.95q-5.42,10.85-10.67,20.89t-9.56,18.34q-4.29,8.3-7.48,14.35t-4.46,8.61l-4.94,9.89a119.75,119.75,0,0,0-5.26,12.12A35.83,35.83,0,0,0,387,309.64q-.17,5.1,3.35,7a17,17,0,0,0,9.24,1.43c3.61-.31,7.64-2.18,12.1-5.58s9.35-8.72,14.66-15.94,10.83-17.12,16.57-29.66a7.84,7.84,0,0,1,1.91-1.92,7.11,7.11,0,0,1,5.09-1.27q1.28.31,1.12,4.62a36.69,36.69,0,0,1-2.39,10.53,119.91,119.91,0,0,1-6.05,13.71A72.56,72.56,0,0,1,433,306.77a77.77,77.77,0,0,1-13.38,12.28,60.67,60.67,0,0,1-15.93,8.45,47.13,47.13,0,0,1-17.2,2.56,33.15,33.15,0,0,1-16.89-5.43q-6.06-3.51-5.57-12.44a75.26,75.26,0,0,1,4.46-20.41,186.47,186.47,0,0,1,10.35-23.92q6.38-12.44,12.58-23.44t10.52-19q4.29-8,4.3-10.52l-17.52.64,12.74-26.47,18.48-.32q4.77-8.93,9.55-18t8.92-17.07q4.14-8,7.49-14.19t5.58-10a14.69,14.69,0,0,1,6.21-4.63,20.29,20.29,0,0,1,7.49-1.43,36.14,36.14,0,0,1,7,.63l4.78,1c-.63,1.07-1.91,3.51-3.82,7.34s-4.3,8.56-7.17,14.19ZM122.17,109.79a27.29,27.29,0,0,1-6.29,5.47,26.22,26.22,0,0,1-9.29,3.83,30,30,0,0,1-10.67.27,16.32,16.32,0,0,1-9.84-5.74,9.6,9.6,0,0,1-2.73-7.12,29.33,29.33,0,0,1,1.36-8.75,86.8,86.8,0,0,1,3-8.2A17.82,17.82,0,0,1,91,84.08,27.1,27.1,0,0,1,98.66,77a17.11,17.11,0,0,1,7.11-2.73q3.81-.54,8.2,3.83a41.26,41.26,0,0,1,10.12,17.5c1.64,6.21,1,10.94-1.92,14.23Z"/></svg>